{"asset":{"version":"2.0","generator":"THREE.GLTFExporter"},"scenes":[{"name":"default","nodes":[0]}],"scene":0,"nodes":[{"mesh":0}],"bufferViews":[{"buffer":0,"byteOffset":0,"byteLength":16500,"target":34962,"byteStride":12},{"buffer":0,"byteOffset":16500,"byteLength":16500,"target":34962,"byteStride":12},{"buffer":0,"byteOffset":33000,"byteLength":11000,"target":34962,"byteStride":8},{"buffer":0,"byteOffset":44000,"byteLength":16500,"target":34962,"byteStride":12},{"buffer":0,"byteOffset":60500,"byteLength":11000,"target":34962,"byteStride":8},{"buffer":0,"byteOffset":71500,"byteLength":3908,"target":34963}],"buffers":[{"byteLength":75408,"uri":"data:application/octet-stream;base64,"}],"accessors":[{"bufferView":0,"componentType":5126,"count":1375,"max":[22,7.717916965484619,12],"min":[0,-4,-15.0625],"type":"VEC3"},{"bufferView":1,"componentType":5126,"count":1375,"max":[1,1,1],"min":[-1,-1,-1],"type":"VEC3"},{"bufferView":2,"componentType":5126,"count":1375,"max":[0.8333333134651184,0.5052083730697632],"min":[-2.4835269396561444e-9,-2.384185791015625e-7],"type":"VEC2"},{"bufferView":3,"componentType":5126,"count":1375,"max":[1,1,1],"min":[0,0,0],"type":"VEC3"},{"bufferView":4,"componentType":5126,"count":1375,"max":[-1,0],"min":[-1,0],"type":"VEC2"},{"bufferView":5,"componentType":5123,"count":1953,"max":[1374],"min":[0],"type":"SCALAR"}],"materials":[{"pbrMetallicRoughness":{"metallicFactor":0.5,"roughnessFactor":0.5,"baseColorTexture":{"index":0}},"alphaMode":"MASK","alphaCutoff":0.01,"name":"simple test_1"}],"textures":[{"sampler":0,"source":0,"name":"simple test_1"}],"samplers":[{"magFilter":9728,"minFilter":9728,"wrapS":33071,"wrapT":33071}],"images":[{"mimeType":"image/png","uri":"simple test_1.png"}],"meshes":[{"primitives":[{"mode":4,"attributes":{"POSITION":0,"NORMAL":1,"TEXCOORD_0":2,"COLOR_0":3,"_UVANIMATION":4},"indices":5,"material":0}]}]}